# xmcd CD database file
#
# Track frame offsets:
#	150
#	12542
#	27904
#	48462
#
# Disc length: 701 seconds
#
# Revision: 0
# Processed by: cddbd v1.5.2PL0 Copyright (c) Steve Scherf et al.
# Submitted via: CDex 1.70beta2
#
DISCID=2c02bb04
DTITLE=Myzery - The Four Faces of Myzery
DYEAR=2001
DGENRE=Psychopathic
TTITLE0=When It Rains Blood
TTITLE1=Piece By Piece
TTITLE2=Stay Strong
TTITLE3=Outro
EXTD=YEAR: 2001
EXTT0=
EXTT1=
EXTT2=
EXTT3=
PLAYORDER=
